<svg width="1440" height="813" viewBox="0 0 1440 813" fill="none" xmlns="http://www.w3.org/2000/svg">
<g clip-path="url(#clip0_30_1471)">
<g clip-path="url(#clip1_30_1471)">
<path d="M94.5166 101V65.502H98.8379V82.1523H117.417V65.502H121.787V101H117.417V86.1562H98.8379V101H94.5166ZM131.09 72.167C129.454 72.167 128.209 70.8975 128.209 69.335C128.209 67.748 129.454 66.4785 131.09 66.4785C132.677 66.4785 133.971 67.748 133.971 69.335C133.971 70.8975 132.677 72.167 131.09 72.167ZM129.039 101V76.6836H133.067V101H129.039ZM147.595 101.317V101.342C143.591 101.342 140.441 99.9502 138.049 97.8262L140.173 94.75C142.053 96.5322 144.177 97.6553 147.595 97.6553C150.524 97.6553 152.233 96.1904 152.233 94.4082C152.233 92.3086 149.963 91.6494 146.423 90.4043C142.443 89.0127 139.099 87.377 139.099 82.9092C139.099 79.1982 142.517 76.3906 147.155 76.3906C150.085 76.3906 152.819 77.1719 155.529 79.3936L153.43 82.5918C151.281 80.7363 149.035 80.0527 146.96 80.0527C145.104 80.0527 143.225 81.1514 143.225 82.9092C143.225 84.8135 145.227 85.7412 147.839 86.7422C152.966 88.7197 156.359 89.5986 156.335 94.335C156.335 98.168 153.454 101.317 147.595 101.317ZM168.128 101.317V101.342C163.807 101.342 161.805 98.6807 161.805 93.7734V80.1992H158.704V76.6836H161.805V68.3584L165.857 67.9189V76.6836H173.914V80.1992H165.857V93.1631C165.857 96.0928 166.541 97.5332 168.836 97.5332C170.276 97.5332 171.79 96.9473 172.938 96.2881L174.012 99.8281C172.693 100.585 171.009 101.317 168.128 101.317ZM188.417 101.317C180.873 101.317 175.844 95.873 175.844 88.8906C175.844 81.835 180.873 76.3906 188.417 76.3906C195.595 76.3906 200.941 81.4688 200.941 88.8906C200.941 96.2637 195.595 101.317 188.417 101.317ZM188.417 97.6064C193.104 97.6064 196.84 94.0176 196.84 88.8906C196.84 83.6904 193.129 80.126 188.417 80.126C183.339 80.126 179.921 84.0322 179.921 88.8906C179.921 93.7002 183.388 97.6064 188.417 97.6064ZM218.228 76.3906C218.594 76.3906 218.936 76.3906 219.229 76.4395V80.9072C218.643 80.8584 218.032 80.834 217.617 80.834C213.003 80.834 210.22 84.3984 210.22 89.2812V101H206.167V76.6836H210.22V80.9316H210.317C212.124 78.0508 214.932 76.3906 218.228 76.3906ZM225.455 72.167C223.819 72.167 222.574 70.8975 222.574 69.335C222.574 67.748 223.819 66.4785 225.455 66.4785C227.042 66.4785 228.336 67.748 228.336 69.335C228.336 70.8975 227.042 72.167 225.455 72.167ZM223.404 101V76.6836H227.433V101H223.404ZM253.435 76.6836L257.487 76.6592V101H253.605V97.1426H253.557C251.579 99.7549 248.601 101.317 245.012 101.317C238.298 101.317 233.073 96.459 233.073 88.9883C233.073 81.8105 238.103 76.3906 244.987 76.3906C248.308 76.3906 251.311 77.7334 253.337 80.2725H253.435V76.6836ZM245.402 97.6064C249.772 97.6064 253.581 94.1641 253.581 89.0127C253.581 84.0078 250.114 80.0771 245.451 80.0771C240.812 80.0771 237.199 83.5928 237.199 89.0127C237.199 93.9199 240.446 97.6064 245.402 97.6064ZM264.324 101V64.208H268.353V101H264.324ZM288.911 101V65.502H299.531C310.786 65.502 317.964 72.8018 317.964 83.2998C317.964 93.7734 311.006 101 299.678 101H288.911ZM293.257 97.0449H299.409C307.93 97.0449 313.472 91.2832 313.472 83.2998C313.472 75.1699 307.881 69.457 299.604 69.457H293.257V97.0449ZM345.211 88.4756C345.211 89.0615 345.138 89.916 345.089 90.1113L345.113 90.1357H326.388C326.9 94.6523 330.123 97.6064 334.493 97.6064C337.521 97.6064 339.84 96.2148 341.354 94.335L344.186 96.752C342.11 99.4375 338.79 101.317 334.347 101.317C327.438 101.317 322.237 96.2881 322.237 88.8662C322.237 81.5176 327.315 76.3906 333.883 76.3906C340.67 76.3906 345.211 81.4932 345.211 88.4756ZM334.103 80.126C330.294 80.126 327.242 82.6406 326.485 86.7666H341.183C340.548 82.7871 337.96 80.126 334.103 80.126ZM363.792 101V65.502H376.219C384.52 65.502 387.962 70.2139 387.962 76.5127C387.962 84.0322 382.859 87.4746 375.462 87.4746H368.113V101H363.792ZM368.138 83.4707H375.047C381.004 83.4707 383.445 80.4678 383.445 76.415C383.445 71.9229 380.516 69.5059 375.73 69.5059H368.138V83.4707ZM405.077 76.3906C405.443 76.3906 405.785 76.3906 406.078 76.4395V80.9072C405.492 80.8584 404.882 80.834 404.467 80.834C399.853 80.834 397.069 84.3984 397.069 89.2812V101H393.017V76.6836H397.069V80.9316H397.167C398.974 78.0508 401.781 76.3906 405.077 76.3906ZM430.518 88.4756C430.518 89.0615 430.444 89.916 430.396 90.1113L430.42 90.1357H411.694C412.207 94.6523 415.43 97.6064 419.8 97.6064C422.827 97.6064 425.146 96.2148 426.66 94.335L429.492 96.752C427.417 99.4375 424.097 101.317 419.653 101.317C412.744 101.317 407.544 96.2881 407.544 88.8662C407.544 81.5176 412.622 76.3906 419.189 76.3906C425.977 76.3906 430.518 81.4932 430.518 88.4756ZM419.409 80.126C415.601 80.126 412.549 82.6406 411.792 86.7666H426.489C425.854 82.7871 423.267 80.126 419.409 80.126ZM446.192 101.317H446.217C439.21 101.317 434.181 96.2637 434.181 88.8906C434.181 81.5176 439.21 76.3662 446.363 76.3662C450.001 76.3662 453.785 77.8555 456.178 80.6875L453.37 83.1289C451.856 81.3223 449.464 80.0771 446.559 80.0771C441.627 80.0771 438.282 83.6904 438.282 88.8418C438.282 94.042 441.676 97.582 446.559 97.582C449.415 97.582 451.954 96.3613 453.443 94.6768L456.251 97.1914C454.2 99.5352 450.562 101.317 446.192 101.317ZM463.186 72.167C461.55 72.167 460.305 70.8975 460.305 69.335C460.305 67.748 461.55 66.4785 463.186 66.4785C464.772 66.4785 466.066 67.748 466.066 69.335C466.066 70.8975 464.772 72.167 463.186 72.167ZM461.135 101V76.6836H465.163V101H461.135ZM483.353 101.317C475.809 101.317 470.779 95.873 470.779 88.8906C470.779 81.835 475.809 76.3906 483.353 76.3906C490.53 76.3906 495.877 81.4688 495.877 88.8906C495.877 96.2637 490.53 101.317 483.353 101.317ZM483.353 97.6064C488.04 97.6064 491.775 94.0176 491.775 88.8906C491.775 83.6904 488.064 80.126 483.353 80.126C478.274 80.126 474.856 84.0322 474.856 88.8906C474.856 93.7002 478.323 97.6064 483.353 97.6064ZM508.524 101.317V101.342C504.521 101.342 501.371 99.9502 498.979 97.8262L501.103 94.75C502.982 96.5322 505.106 97.6553 508.524 97.6553C511.454 97.6553 513.163 96.1904 513.163 94.4082C513.163 92.3086 510.893 91.6494 507.353 90.4043C503.373 89.0127 500.028 87.377 500.028 82.9092C500.028 79.1982 503.446 76.3906 508.085 76.3906C511.015 76.3906 513.749 77.1719 516.459 79.3936L514.359 82.5918C512.211 80.7363 509.965 80.0527 507.89 80.0527C506.034 80.0527 504.154 81.1514 504.154 82.9092C504.154 84.8135 506.156 85.7412 508.769 86.7422C513.896 88.7197 517.289 89.5986 517.265 94.335C517.265 98.168 514.384 101.317 508.524 101.317Z" fill="#00E6DD"/>
<g clip-path="url(#clip2_30_1471)">
<path d="M187.891 626V608.251H198.755V610.241H190.076V616.198H197.204V618.187H190.076V624.01H199.267V626H187.891ZM208.972 613.695H208.984C211.609 613.695 213.354 615.307 213.354 618.798V626.012H211.328V619.359C211.328 616.503 210.132 615.551 208.349 615.551C206.055 615.551 204.529 617.199 204.529 619.933V626H202.502V613.842H204.529V615.929H204.565C205.578 614.489 207.178 613.695 208.972 613.695ZM227.722 619.738C227.722 620.031 227.685 620.458 227.661 620.556L227.673 620.568H218.31C218.567 622.826 220.178 624.303 222.363 624.303C223.877 624.303 225.036 623.607 225.793 622.667L227.209 623.876C226.172 625.219 224.512 626.159 222.29 626.159C218.835 626.159 216.235 623.644 216.235 619.933C216.235 616.259 218.774 613.695 222.058 613.695C225.452 613.695 227.722 616.246 227.722 619.738ZM222.168 615.563C220.264 615.563 218.738 616.82 218.359 618.883H225.708C225.391 616.893 224.097 615.563 222.168 615.563ZM236.816 613.695C236.999 613.695 237.17 613.695 237.317 613.72V615.953C237.024 615.929 236.719 615.917 236.511 615.917C234.204 615.917 232.812 617.699 232.812 620.141V626H230.786V613.842H232.812V615.966H232.861C233.765 614.525 235.168 613.695 236.816 613.695ZM244.849 626.159C241.077 626.159 238.562 623.436 238.562 619.945C238.562 616.417 241.077 613.695 244.849 613.695C248.437 613.695 251.111 616.234 251.111 619.945C251.111 623.632 248.437 626.159 244.849 626.159ZM244.849 624.303C247.192 624.303 249.06 622.509 249.06 619.945C249.06 617.345 247.204 615.563 244.849 615.563C242.309 615.563 240.6 617.516 240.6 619.945C240.6 622.35 242.334 624.303 244.849 624.303Z" fill="#666666"/>
<path d="M119.187 443.083H126.804V445.012H116.001L115.977 443.559L121.848 437.566C123.301 436.064 124.473 434.661 124.473 432.952C124.473 431.059 123.142 429.656 121.238 429.656C119.614 429.656 118.357 430.461 117.551 432.012L116.001 430.95C116.953 429.057 118.687 427.69 121.372 427.69C124.082 427.69 126.572 429.57 126.572 432.744C126.572 434.685 125.779 436.357 123.655 438.518L119.187 443.047V443.083ZM128.977 433.281L129.795 427.251H132.004L130.649 433.281H128.977ZM140.83 445.159V445.171C137.095 445.171 134.385 442.046 134.385 436.443C134.385 431.352 136.741 427.69 140.83 427.69C144.565 427.69 147.275 430.803 147.275 436.443C147.275 441.509 144.932 445.159 140.83 445.159ZM140.842 443.218C143.589 443.218 145.151 440.544 145.151 436.443C145.151 432.048 143.369 429.643 140.854 429.643C138.096 429.643 136.509 432.305 136.509 436.443C136.509 440.776 138.303 443.218 140.842 443.218ZM156.528 445.159V445.171C152.793 445.171 150.083 442.046 150.083 436.443C150.083 431.352 152.439 427.69 156.528 427.69C160.264 427.69 162.974 430.803 162.974 436.443C162.974 441.509 160.63 445.159 156.528 445.159ZM156.541 443.218C159.287 443.218 160.85 440.544 160.85 436.443C160.85 432.048 159.067 429.643 156.553 429.643C153.794 429.643 152.207 432.305 152.207 436.443C152.207 440.776 154.001 443.218 156.541 443.218ZM172.227 445.159V445.171C168.491 445.171 165.781 442.046 165.781 436.443C165.781 431.352 168.137 427.69 172.227 427.69C175.962 427.69 178.672 430.803 178.672 436.443C178.672 441.509 176.328 445.159 172.227 445.159ZM172.239 443.218C174.985 443.218 176.548 440.544 176.548 436.443C176.548 432.048 174.766 429.643 172.251 429.643C169.492 429.643 167.905 432.305 167.905 436.443C167.905 440.776 169.7 443.218 172.239 443.218ZM187.925 445.159V445.171C184.189 445.171 181.479 442.046 181.479 436.443C181.479 431.352 183.835 427.69 187.925 427.69C191.66 427.69 194.37 430.803 194.37 436.443C194.37 441.509 192.026 445.159 187.925 445.159ZM187.937 443.218C190.684 443.218 192.246 440.544 192.246 436.443C192.246 432.048 190.464 429.643 187.949 429.643C185.19 429.643 183.604 432.305 183.604 436.443C183.604 440.776 185.398 443.218 187.937 443.218ZM203.623 445.159V445.171C199.888 445.171 197.178 442.046 197.178 436.443C197.178 431.352 199.534 427.69 203.623 427.69C207.358 427.69 210.068 430.803 210.068 436.443C210.068 441.509 207.725 445.159 203.623 445.159ZM203.635 443.218C206.382 443.218 207.944 440.544 207.944 436.443C207.944 432.048 206.162 429.643 203.647 429.643C200.889 429.643 199.302 432.305 199.302 436.443C199.302 440.776 201.096 443.218 203.635 443.218ZM219.321 445.159V445.171C215.586 445.171 212.876 442.046 212.876 436.443C212.876 431.352 215.232 427.69 219.321 427.69C223.057 427.69 225.767 430.803 225.767 436.443C225.767 441.509 223.423 445.159 219.321 445.159ZM219.333 443.218C222.08 443.218 223.643 440.544 223.643 436.443C223.643 432.048 221.86 429.643 219.346 429.643C216.587 429.643 215 432.305 215 436.443C215 440.776 216.794 443.218 219.333 443.218Z" fill="#666666"/>
<path d="M881.542 612.251H883.714V630H881.542V616.401H881.505L875.719 626.435H874.242L868.456 616.401H868.419V630H866.246V612.251H868.431L874.95 623.738H875.023L881.542 612.251ZM897.337 617.842L899.364 617.829V630H897.423V628.071H897.398C896.41 629.377 894.92 630.159 893.126 630.159C889.769 630.159 887.157 627.729 887.157 623.994C887.157 620.405 889.671 617.695 893.114 617.695C894.774 617.695 896.275 618.367 897.289 619.636H897.337V617.842ZM893.321 628.303C895.506 628.303 897.411 626.582 897.411 624.006C897.411 621.504 895.677 619.538 893.346 619.538C891.026 619.538 889.22 621.296 889.22 624.006C889.22 626.46 890.843 628.303 893.321 628.303ZM911.62 617.842H913.756L906.871 634.944H904.723L906.896 629.536L901.756 617.842H903.917L907.872 627.095H907.933L911.62 617.842ZM921.19 630.159C917.418 630.159 914.903 627.436 914.903 623.945C914.903 620.417 917.418 617.695 921.19 617.695C924.779 617.695 927.452 620.234 927.452 623.945C927.452 627.632 924.779 630.159 921.19 630.159ZM921.19 628.303C923.534 628.303 925.401 626.509 925.401 623.945C925.401 621.345 923.546 619.563 921.19 619.563C918.651 619.563 916.942 621.516 916.942 623.945C916.942 626.35 918.675 628.303 921.19 628.303Z" fill="#666666"/>
<path d="M715.062 626L713.476 621.679H705.553L703.979 626H701.696L708.41 608.251H710.595L717.357 626H715.062ZM706.249 619.774H712.78L709.533 610.9H709.484L706.249 619.774ZM726.22 613.695H726.232C729.674 613.695 732.189 616.405 732.189 620.006C732.189 623.729 729.577 626.159 726.22 626.159C724.425 626.159 722.936 625.377 721.947 624.083H721.923V626H719.982V607.604H722.008V615.636H722.057C723.07 614.367 724.572 613.695 726.22 613.695ZM726.024 624.315H726.012C728.49 624.315 730.114 622.472 730.114 620.018C730.114 617.308 728.307 615.551 725.988 615.551C723.656 615.551 721.935 617.516 721.935 620.018C721.935 622.594 723.839 624.315 726.024 624.315ZM741.32 613.695C741.503 613.695 741.674 613.695 741.82 613.72V615.953C741.527 615.929 741.222 615.917 741.015 615.917C738.708 615.917 737.316 617.699 737.316 620.141V626H735.29V613.842H737.316V615.966H737.365C738.268 614.525 739.672 613.695 741.32 613.695ZM745.434 611.583C744.616 611.583 743.993 610.949 743.993 610.167C743.993 609.374 744.616 608.739 745.434 608.739C746.227 608.739 746.874 609.374 746.874 610.167C746.874 610.949 746.227 611.583 745.434 611.583ZM744.408 626V613.842H746.422V626H744.408ZM750.658 626V607.604H752.672V626H750.658Z" fill="#666666"/>
<path d="M525.423 608.251H527.596V626H525.423V612.401H525.386L519.6 622.435H518.123L512.337 612.401H512.3V626H510.127V608.251H512.312L518.831 619.738H518.904L525.423 608.251ZM541.219 613.842L543.245 613.829V626H541.304V624.071H541.28C540.291 625.377 538.802 626.159 537.007 626.159C533.65 626.159 531.038 623.729 531.038 619.994C531.038 616.405 533.553 613.695 536.995 613.695C538.655 613.695 540.157 614.367 541.17 615.636H541.219V613.842ZM537.203 624.303C539.388 624.303 541.292 622.582 541.292 620.006C541.292 617.504 539.558 615.538 537.227 615.538C534.908 615.538 533.101 617.296 533.101 620.006C533.101 622.46 534.724 624.303 537.203 624.303ZM553.011 613.695C553.194 613.695 553.365 613.695 553.511 613.72V615.953C553.218 615.929 552.913 615.917 552.705 615.917C550.398 615.917 549.007 617.699 549.007 620.141V626H546.98V613.842H549.007V615.966H549.056C549.959 614.525 551.363 613.695 553.011 613.695ZM564.803 615.282L557.698 624.205V624.254H564.79V626.012H554.964V624.523L562.019 615.648V615.599H555.342V613.842H564.803V615.282ZM572.762 626.159C568.99 626.159 566.475 623.436 566.475 619.945C566.475 616.417 568.99 613.695 572.762 613.695C576.35 613.695 579.024 616.234 579.024 619.945C579.024 623.632 576.35 626.159 572.762 626.159ZM572.762 624.303C575.105 624.303 576.973 622.509 576.973 619.945C576.973 617.345 575.118 615.563 572.762 615.563C570.223 615.563 568.514 617.516 568.514 619.945C568.514 622.35 570.247 624.303 572.762 624.303Z" fill="#666666"/>
<path d="M339.481 626V608.239H350.797V610.241H341.642V616.491H349.43V618.48H341.642V626H339.481ZM363.566 619.738C363.566 620.031 363.529 620.458 363.505 620.556L363.517 620.568H354.154C354.41 622.826 356.022 624.303 358.207 624.303C359.72 624.303 360.88 623.607 361.637 622.667L363.053 623.876C362.015 625.219 360.355 626.159 358.133 626.159C354.679 626.159 352.079 623.644 352.079 619.933C352.079 616.259 354.618 613.695 357.901 613.695C361.295 613.695 363.566 616.246 363.566 619.738ZM358.011 615.563C356.107 615.563 354.581 616.82 354.203 618.883H361.551C361.234 616.893 359.94 615.563 358.011 615.563ZM372.892 613.695H372.904C376.346 613.695 378.861 616.405 378.861 620.006C378.861 623.729 376.249 626.159 372.892 626.159C371.097 626.159 369.608 625.377 368.619 624.083H368.595V626H366.654V607.604H368.68V615.636H368.729C369.742 614.367 371.244 613.695 372.892 613.695ZM372.696 624.315H372.684C375.162 624.315 376.786 622.472 376.786 620.018C376.786 617.308 374.979 615.551 372.66 615.551C370.328 615.551 368.607 617.516 368.607 620.018C368.607 622.594 370.511 624.315 372.696 624.315ZM387.992 613.695C388.175 613.695 388.346 613.695 388.492 613.72V615.953C388.199 615.929 387.894 615.917 387.687 615.917C385.38 615.917 383.988 617.699 383.988 620.141V626H381.962V613.842H383.988V615.966H384.037C384.94 614.525 386.344 613.695 387.992 613.695ZM401.212 619.738C401.212 620.031 401.175 620.458 401.151 620.556L401.163 620.568H391.8C392.057 622.826 393.668 624.303 395.853 624.303C397.367 624.303 398.526 623.607 399.283 622.667L400.699 623.876C399.662 625.219 398.002 626.159 395.78 626.159C392.325 626.159 389.725 623.644 389.725 619.933C389.725 616.259 392.264 613.695 395.548 613.695C398.942 613.695 401.212 616.246 401.212 619.738ZM395.658 615.563C393.754 615.563 392.228 616.82 391.849 618.883H399.198C398.88 616.893 397.587 615.563 395.658 615.563ZM410.306 613.695C410.489 613.695 410.66 613.695 410.807 613.72V615.953C410.514 615.929 410.209 615.917 410.001 615.917C407.694 615.917 406.302 617.699 406.302 620.141V626H404.276V613.842H406.302V615.966H406.351C407.255 614.525 408.658 613.695 410.306 613.695ZM418.339 626.159C414.567 626.159 412.052 623.436 412.052 619.945C412.052 616.417 414.567 613.695 418.339 613.695C421.927 613.695 424.601 616.234 424.601 619.945C424.601 623.632 421.927 626.159 418.339 626.159ZM418.339 624.303C420.682 624.303 422.55 622.509 422.55 619.945C422.55 617.345 420.694 615.563 418.339 615.563C415.799 615.563 414.09 617.516 414.09 619.945C414.09 622.35 415.824 624.303 418.339 624.303Z" fill="#666666"/>
<path d="M1331.5 616.034V616.454C1331.5 616.579 1331.49 616.681 1331.46 616.76C1331.44 616.836 1331.41 616.9 1331.38 616.952L1329.23 621.38C1329.19 621.471 1329.12 621.55 1329.04 621.615C1328.96 621.678 1328.85 621.709 1328.72 621.709H1328.02L1330.21 617.372C1330.26 617.283 1330.31 617.202 1330.35 617.129C1330.4 617.053 1330.46 616.981 1330.52 616.913H1327.8C1327.74 616.913 1327.69 616.891 1327.65 616.846C1327.6 616.802 1327.58 616.749 1327.58 616.689V616.034H1331.5Z" fill="#666666"/>
<path d="M227.488 578.332H1345.29" stroke="#D9D9D9" stroke-width="0.5" stroke-linecap="round" stroke-linejoin="round"/>
<path d="M227.488 436.696H1345.29" stroke="#D9D9D9" stroke-width="0.5" stroke-linecap="round" stroke-linejoin="round"/>
<path d="M227.488 295.061H1345.29" stroke="#D9D9D9" stroke-width="0.5" stroke-linecap="round" stroke-linejoin="round"/>
<path d="M227.488 576.262C227.488 580.402 224.257 583.789 220.308 583.789C216.359 583.789 213.128 580.402 213.128 576.262C213.128 572.122 216.359 568.735 220.308 568.735C224.257 568.735 227.488 572.122 227.488 576.262Z" fill="url(#paint0_linear_30_1471)"/>
<path d="M388.148 576.262C388.148 580.402 384.917 583.789 380.968 583.789C377.019 583.789 373.787 580.402 373.787 576.262C373.787 572.122 377.019 568.735 380.968 568.735C384.917 568.735 388.148 572.122 388.148 576.262Z" fill="url(#paint1_linear_30_1471)"/>
<path d="M548.868 576.262C548.868 580.402 545.637 583.789 541.687 583.789C537.738 583.789 534.507 580.402 534.507 576.262C534.507 572.122 537.738 568.735 541.687 568.735C545.637 568.735 548.868 572.122 548.868 576.262Z" fill="url(#paint2_linear_30_1471)"/>
<path d="M709.587 576.262C709.587 580.402 706.356 583.789 702.407 583.789C698.458 583.789 695.227 580.402 695.227 576.262C695.227 572.122 698.458 568.735 702.407 568.735C706.356 568.735 709.587 572.122 709.587 576.262Z" fill="url(#paint3_linear_30_1471)"/>
<path d="M870.307 576.262C870.307 580.402 867.076 583.789 863.127 583.789C859.177 583.789 855.946 580.402 855.946 576.262C855.946 572.122 859.177 568.735 863.127 568.735C867.076 568.735 870.307 572.122 870.307 576.262Z" fill="url(#paint4_linear_30_1471)"/>
<path d="M1191.75 576.262C1191.75 580.402 1188.51 583.789 1184.57 583.789C1180.62 583.789 1177.39 580.402 1177.39 576.262C1177.39 572.122 1180.62 568.735 1184.57 568.735C1188.51 568.735 1191.75 572.122 1191.75 576.262Z" fill="url(#paint5_linear_30_1471)"/>
<path d="M1031.03 576.262C1031.03 580.402 1027.8 583.789 1023.85 583.789C1019.9 583.789 1016.67 580.402 1016.67 576.262C1016.67 572.122 1019.9 568.735 1023.85 568.735C1027.8 568.735 1031.03 572.122 1031.03 576.262Z" fill="url(#paint6_linear_30_1471)"/>
<path d="M1352.47 576.262C1352.47 580.402 1349.23 583.789 1345.29 583.789C1341.34 583.789 1338.1 580.402 1338.1 576.262C1338.1 572.122 1341.34 568.735 1345.29 568.735C1349.23 568.735 1352.47 572.122 1352.47 576.262Z" fill="url(#paint7_linear_30_1471)"/>
<path d="M300.728 578.332C300.728 581.092 298.634 583.287 296.001 583.287C293.368 583.287 291.274 581.092 291.274 578.332C291.274 575.572 293.368 573.376 296.001 573.376C298.634 573.376 300.728 575.572 300.728 578.332Z" fill="#CCCCCC"/>
<path d="M462.046 578.332C462.046 581.092 459.951 583.287 457.319 583.287C454.686 583.287 452.592 581.092 452.592 578.332C452.592 575.572 454.686 573.376 457.319 573.376C459.951 573.376 462.046 575.572 462.046 578.332Z" fill="#CCCCCC"/>
<path d="M623.304 578.332C623.304 581.092 621.21 583.287 618.577 583.287C615.944 583.287 613.85 581.092 613.85 578.332C613.85 575.572 615.944 573.376 618.577 573.376C621.21 573.376 623.304 575.572 623.304 578.332Z" fill="#CCCCCC"/>
<path d="M784.622 578.332C784.622 581.092 782.527 583.287 779.895 583.287C777.262 583.287 775.168 581.092 775.168 578.332C775.168 575.572 777.262 573.376 779.895 573.376C782.527 573.376 784.622 575.572 784.622 578.332Z" fill="#CCCCCC"/>
<path d="M945.94 578.332C945.94 581.092 943.845 583.287 941.213 583.287C938.58 583.287 936.486 581.092 936.486 578.332C936.486 575.572 938.58 573.376 941.213 573.376C943.845 573.376 945.94 575.572 945.94 578.332Z" fill="#CCCCCC"/>
<path d="M1107.26 578.332C1107.26 581.092 1105.16 583.287 1102.53 583.287C1099.9 583.287 1097.8 581.092 1097.8 578.332C1097.8 575.572 1099.9 573.376 1102.53 573.376C1105.16 573.376 1107.26 575.572 1107.26 578.332Z" fill="#CCCCCC"/>
<path d="M1268.58 578.332C1268.58 581.092 1266.48 583.287 1263.85 583.287C1261.22 583.287 1259.12 581.092 1259.12 578.332C1259.12 575.572 1261.22 573.376 1263.85 573.376C1266.48 573.376 1268.58 575.572 1268.58 578.332Z" fill="#CCCCCC"/>
<path d="M223.719 457.835L323.884 507.012C358.17 523.886 398.56 519.432 428.777 495.533L494.776 443.345C529.301 416.06 576.392 414.491 612.533 439.394C662.018 473.579 728.795 456.581 757.815 402.385L796.05 331.066C832.251 263.573 922.723 257.363 967.002 319.336L990.458 352.204C1009.78 379.239 1040.06 395.172 1072.31 395.172H1142.02C1162.37 395.172 1182.23 401.507 1199.11 413.425L1345.29 516.609" stroke="url(#paint8_linear_30_1471)" stroke-width="2" stroke-linecap="round" stroke-linejoin="round"/>
<path d="M398.619 515.731C398.619 525.893 390.721 534.173 381.028 534.173C371.334 534.173 363.436 525.893 363.436 515.731C363.436 505.57 371.334 497.29 381.028 497.29C390.721 497.29 398.619 505.57 398.619 515.731Z" fill="url(#paint9_linear_30_1471)"/>
<path d="M559.339 421.705C559.339 431.867 551.441 440.146 541.747 440.146C532.054 440.146 524.155 431.867 524.155 421.705C524.155 411.543 532.054 403.264 541.747 403.264C551.441 403.264 559.339 411.543 559.339 421.705Z" fill="url(#paint10_linear_30_1471)"/>
<path d="M719.999 447.423C719.999 457.584 712.1 465.864 702.407 465.864C692.713 465.864 684.815 457.584 684.815 447.423C684.815 437.261 692.713 428.981 702.407 428.981C712.1 428.981 719.999 437.261 719.999 447.423Z" fill="url(#paint11_linear_30_1471)"/>
<path d="M880.718 279.003C880.718 289.165 872.82 297.445 863.126 297.445C853.433 297.445 845.535 289.165 845.535 279.003C845.535 268.842 853.433 260.562 863.126 260.562C872.82 260.562 880.718 268.842 880.718 279.003Z" fill="url(#paint12_linear_30_1471)"/>
<path d="M1041.44 379.302C1041.44 389.464 1033.54 397.744 1023.85 397.744C1014.15 397.744 1006.25 389.464 1006.25 379.302C1006.25 369.141 1014.15 360.861 1023.85 360.861C1033.54 360.861 1041.44 369.141 1041.44 379.302Z" fill="url(#paint13_linear_30_1471)"/>
<path d="M1202.16 406.023C1202.16 416.185 1194.26 424.465 1184.57 424.465C1174.87 424.465 1166.97 416.185 1166.97 406.023C1166.97 395.862 1174.87 387.582 1184.57 387.582C1194.26 387.582 1202.16 395.862 1202.16 406.023Z" fill="url(#paint14_linear_30_1471)"/>
<path d="M128.187 301.083H135.804V303.012H125.001L124.977 301.56L130.848 295.566C132.301 294.064 133.473 292.661 133.473 290.952C133.473 289.06 132.142 287.656 130.238 287.656C128.614 287.656 127.357 288.461 126.551 290.012L125.001 288.95C125.953 287.058 127.687 285.69 130.372 285.69C133.082 285.69 135.572 287.57 135.572 290.744C135.572 292.685 134.779 294.357 132.655 296.518L128.187 301.047V301.083ZM137.977 291.281L138.795 285.251H141.004L139.649 291.281H137.977ZM149.098 285.678V285.69C152.503 285.69 155.14 288.352 155.128 292.429C155.128 298.679 150.636 302.792 146.18 303.61L145.545 301.816C148.658 301.035 151.673 298.996 152.711 295.188L152.687 295.175C151.588 296.115 150.074 296.689 148.377 296.689C145.436 296.689 143.165 294.638 143.165 291.293C143.165 288.095 145.716 285.678 149.098 285.678ZM148.841 294.772C150.562 294.772 152.198 293.796 153.077 292.38V292.246C153.077 289.45 151.405 287.644 149.134 287.644C146.815 287.644 145.277 289.328 145.277 291.318C145.277 293.369 146.705 294.772 148.841 294.772ZM164.308 303.159V303.171C160.572 303.171 157.862 300.046 157.862 294.443C157.862 289.353 160.218 285.69 164.308 285.69C168.043 285.69 170.753 288.803 170.753 294.443C170.753 299.509 168.409 303.159 164.308 303.159ZM164.32 301.218C167.066 301.218 168.629 298.544 168.629 294.443C168.629 290.048 166.847 287.644 164.332 287.644C161.573 287.644 159.986 290.305 159.986 294.443C159.986 298.776 161.781 301.218 164.32 301.218ZM180.006 303.159V303.171C176.271 303.171 173.561 300.046 173.561 294.443C173.561 289.353 175.917 285.69 180.006 285.69C183.741 285.69 186.451 288.803 186.451 294.443C186.451 299.509 184.107 303.159 180.006 303.159ZM180.018 301.218C182.765 301.218 184.327 298.544 184.327 294.443C184.327 290.048 182.545 287.644 180.03 287.644C177.271 287.644 175.685 290.305 175.685 294.443C175.685 298.776 177.479 301.218 180.018 301.218ZM195.704 303.159V303.171C191.969 303.171 189.259 300.046 189.259 294.443C189.259 289.353 191.615 285.69 195.704 285.69C199.439 285.69 202.149 288.803 202.149 294.443C202.149 299.509 199.806 303.159 195.704 303.159ZM195.716 301.218C198.463 301.218 200.025 298.544 200.025 294.443C200.025 290.048 198.243 287.644 195.729 287.644C192.97 287.644 191.383 290.305 191.383 294.443C191.383 298.776 193.177 301.218 195.716 301.218ZM211.402 303.159V303.171C207.667 303.171 204.957 300.046 204.957 294.443C204.957 289.353 207.313 285.69 211.402 285.69C215.138 285.69 217.848 288.803 217.848 294.443C217.848 299.509 215.504 303.159 211.402 303.159ZM211.415 301.218C214.161 301.218 215.724 298.544 215.724 294.443C215.724 290.048 213.941 287.644 211.427 287.644C208.668 287.644 207.081 290.305 207.081 294.443C207.081 298.776 208.875 301.218 211.415 301.218ZM227.101 303.159V303.171C223.365 303.171 220.655 300.046 220.655 294.443C220.655 289.353 223.011 285.69 227.101 285.69C230.836 285.69 233.546 288.803 233.546 294.443C233.546 299.509 231.202 303.159 227.101 303.159ZM227.113 301.218C229.859 301.218 231.422 298.544 231.422 294.443C231.422 290.048 229.64 287.644 227.125 287.644C224.366 287.644 222.779 290.305 222.779 294.443C222.779 298.776 224.574 301.218 227.113 301.218Z" fill="#666666"/>
<path d="M1038.46 634.134H1038.44C1036.86 634.134 1035 633.377 1033.78 631.876L1035 630.277C1035.87 631.266 1037.13 632.059 1038.37 632.059C1040.09 632.059 1041.28 631.07 1041.28 628.177V616.251H1043.45V628.238C1043.45 632.047 1041.96 634.134 1038.46 634.134ZM1055.69 621.842H1057.72V634H1055.69V631.998H1055.66C1054.69 633.402 1053.24 634.159 1051.66 634.159C1048.87 634.159 1047.1 632.56 1047.1 629.093V621.842H1049.11V628.507C1049.11 631.278 1050.15 632.303 1052.09 632.303C1054.02 632.303 1055.69 630.631 1055.69 627.738V621.842ZM1067.94 621.695H1067.95C1070.57 621.695 1072.32 623.307 1072.32 626.798V634.012H1070.29V627.359C1070.29 624.503 1069.1 623.551 1067.31 623.551C1065.02 623.551 1063.49 625.199 1063.49 627.933V634H1061.47V621.842H1063.49V623.929H1063.53C1064.54 622.489 1066.14 621.695 1067.94 621.695ZM1077.17 619.583C1076.35 619.583 1075.72 618.949 1075.72 618.167C1075.72 617.374 1076.35 616.739 1077.17 616.739C1077.96 616.739 1078.61 617.374 1078.61 618.167C1078.61 618.949 1077.96 619.583 1077.17 619.583ZM1076.14 634V621.842H1078.15V634H1076.14ZM1087.75 634.159C1083.98 634.159 1081.46 631.437 1081.46 627.945C1081.46 624.417 1083.98 621.695 1087.75 621.695C1091.34 621.695 1094.01 624.234 1094.01 627.945C1094.01 631.632 1091.34 634.159 1087.75 634.159ZM1087.75 632.303C1090.09 632.303 1091.96 630.509 1091.96 627.945C1091.96 625.345 1090.1 623.563 1087.75 623.563C1085.21 623.563 1083.5 625.516 1083.5 627.945C1083.5 630.35 1085.23 632.303 1087.75 632.303Z" fill="#666666"/>
<path d="M1207.46 634.134H1207.44C1205.86 634.134 1204 633.377 1202.78 631.876L1204 630.277C1204.87 631.266 1206.13 632.059 1207.37 632.059C1209.09 632.059 1210.28 631.07 1210.28 628.177V616.251H1212.45V628.238C1212.45 632.047 1210.96 634.134 1207.46 634.134ZM1224.69 621.842H1226.72V634H1224.69V631.998H1224.66C1223.69 633.402 1222.24 634.159 1220.66 634.159C1217.87 634.159 1216.1 632.56 1216.1 629.093V621.842H1218.11V628.507C1218.11 631.278 1219.15 632.303 1221.09 632.303C1223.02 632.303 1224.69 630.631 1224.69 627.738V621.842ZM1230.64 634V615.604H1232.65V634H1230.64ZM1237.91 619.583C1237.1 619.583 1236.47 618.949 1236.47 618.167C1236.47 617.374 1237.1 616.739 1237.91 616.739C1238.71 616.739 1239.35 617.374 1239.35 618.167C1239.35 618.949 1238.71 619.583 1237.91 619.583ZM1236.89 634V621.842H1238.9V634H1236.89ZM1248.5 634.159C1244.72 634.159 1242.21 631.437 1242.21 627.945C1242.21 624.417 1244.72 621.695 1248.5 621.695C1252.09 621.695 1254.76 624.234 1254.76 627.945C1254.76 631.632 1252.09 634.159 1248.5 634.159ZM1248.5 632.303C1250.84 632.303 1252.71 630.509 1252.71 627.945C1252.71 625.345 1250.85 623.563 1248.5 623.563C1245.96 623.563 1244.25 625.516 1244.25 627.945C1244.25 630.35 1245.98 632.303 1248.5 632.303Z" fill="#666666"/>
</g>
<path d="M137.315 179.134L137.327 179.146C132.53 179.146 128.477 176.009 128.477 170.211C128.477 165.157 131.626 161.092 137.327 161.092C139.769 161.092 142.32 162.093 144.249 164.486L142.625 165.841C141.27 164.144 139.354 163.167 137.315 163.167C133.262 163.167 130.748 166.097 130.748 170.211C130.748 174.435 133.58 177.071 137.327 177.071C139.634 177.071 141.368 175.96 142.625 174.422L144.249 175.79C142.698 177.718 140.44 179.134 137.315 179.134ZM152 179.159C148.229 179.159 145.714 176.437 145.714 172.945C145.714 169.417 148.229 166.695 152 166.695C155.589 166.695 158.263 169.234 158.263 172.945C158.263 176.632 155.589 179.159 152 179.159ZM152 177.303C154.344 177.303 156.212 175.509 156.212 172.945C156.212 170.345 154.356 168.563 152 168.563C149.461 168.563 147.752 170.516 147.752 172.945C147.752 175.35 149.486 177.303 152 177.303ZM175.365 166.695C178.124 166.695 179.625 168.282 179.625 171.883V179H177.611V172.433C177.611 169.698 176.696 168.551 174.767 168.551C172.875 168.551 171.337 170.235 171.337 172.97V179H169.323V172.396C169.323 169.698 168.334 168.551 166.43 168.551C164.44 168.551 162.902 170.235 162.902 172.97V179H160.888V166.83H162.902V168.905H162.938C163.939 167.477 165.441 166.683 167.028 166.683C168.896 166.683 170.226 167.44 170.873 169.063H170.922C171.911 167.55 173.51 166.695 175.365 166.695ZM188.977 166.695C192.419 166.695 194.934 169.405 194.934 173.006C194.934 176.729 192.321 179.171 188.964 179.171C187.243 179.171 185.803 178.438 184.826 177.206H184.777V183.944H182.763V166.842H184.79V168.636H184.838C185.852 167.367 187.329 166.695 188.977 166.695ZM188.769 177.315H188.757C191.235 177.315 192.858 175.472 192.858 173.019C192.858 170.309 191.052 168.551 188.745 168.551C186.45 168.551 184.716 170.516 184.716 173.019C184.716 175.594 186.621 177.315 188.769 177.315ZM205.872 166.842H207.898V179H205.872V176.998H205.835C204.871 178.402 203.418 179.159 201.843 179.159C199.048 179.159 197.278 177.56 197.278 174.093V166.842H199.292V173.507C199.292 176.278 200.33 177.303 202.271 177.303C204.199 177.303 205.872 175.631 205.872 172.738V166.842ZM214.576 179.159V179.171C212.415 179.171 211.414 177.84 211.414 175.387V168.6H209.864V166.842H211.414V162.679L213.44 162.459V166.842H217.469V168.6H213.44V175.082C213.44 176.546 213.782 177.267 214.93 177.267C215.65 177.267 216.407 176.974 216.98 176.644L217.518 178.414C216.858 178.792 216.016 179.159 214.576 179.159ZM228.651 166.842L230.677 166.83V179H228.736V177.071H228.712C227.723 178.377 226.234 179.159 224.439 179.159C221.083 179.159 218.47 176.729 218.47 172.994C218.47 169.405 220.985 166.695 224.427 166.695C226.087 166.695 227.589 167.367 228.602 168.636H228.651V166.842ZM224.635 177.303C226.82 177.303 228.724 175.582 228.724 173.006C228.724 170.504 226.991 168.539 224.659 168.539C222.34 168.539 220.533 170.296 220.533 173.006C220.533 175.46 222.157 177.303 224.635 177.303ZM243.288 160.604H245.326V179H243.385V177.083H243.349C242.384 178.377 240.907 179.159 239.137 179.159C235.78 179.159 233.168 176.729 233.168 173.006C233.168 169.405 235.683 166.695 239.113 166.695C240.749 166.695 242.238 167.379 243.251 168.648H243.288V160.604ZM239.333 177.303C241.469 177.303 243.373 175.594 243.373 173.019C243.373 170.516 241.64 168.551 239.357 168.551C237.038 168.551 235.231 170.309 235.231 173.019C235.231 175.46 236.854 177.303 239.333 177.303ZM254.238 179.159C250.466 179.159 247.951 176.437 247.951 172.945C247.951 169.417 250.466 166.695 254.238 166.695C257.827 166.695 260.5 169.234 260.5 172.945C260.5 176.632 257.827 179.159 254.238 179.159ZM254.238 177.303C256.582 177.303 258.449 175.509 258.449 172.945C258.449 170.345 256.594 168.563 254.238 168.563C251.699 168.563 249.99 170.516 249.99 172.945C249.99 175.35 251.723 177.303 254.238 177.303ZM269.143 166.695C269.326 166.695 269.497 166.695 269.644 166.72V168.954C269.351 168.929 269.045 168.917 268.838 168.917C266.531 168.917 265.139 170.699 265.139 173.141V179H263.113V166.842H265.139V168.966H265.188C266.091 167.525 267.495 166.695 269.143 166.695ZM285.929 169.845H293.265V176.876C291.605 178.292 289.09 179.134 286.356 179.134C281.266 179.134 277.494 175.667 277.494 170.15C277.494 164.889 280.948 161.08 286.283 161.08C288.7 161.08 291.178 161.898 293.058 163.875L291.495 165.218C290.091 163.851 288.333 163.167 286.258 163.167C282.523 163.167 279.752 165.914 279.752 170.162C279.752 174.166 282.376 177.108 286.344 177.108C288.126 177.108 289.75 176.729 291.08 175.741V171.847H285.929V169.845ZM305.973 166.842L308 166.83V179H306.059V177.071H306.034C305.045 178.377 303.556 179.159 301.762 179.159C298.405 179.159 295.792 176.729 295.792 172.994C295.792 169.405 298.307 166.695 301.75 166.695C303.41 166.695 304.911 167.367 305.924 168.636H305.973V166.842ZM301.957 177.303C304.142 177.303 306.046 175.582 306.046 173.006C306.046 170.504 304.313 168.539 301.981 168.539C299.662 168.539 297.855 170.296 297.855 173.006C297.855 175.46 299.479 177.303 301.957 177.303ZM325.725 166.695C328.483 166.695 329.985 168.282 329.985 171.883V179H327.971V172.433C327.971 169.698 327.055 168.551 325.126 168.551C323.234 168.551 321.696 170.235 321.696 172.97V179H319.682V172.396C319.682 169.698 318.693 168.551 316.789 168.551C314.799 168.551 313.261 170.235 313.261 172.97V179H311.247V166.83H313.261V168.905H313.298C314.299 167.477 315.8 166.683 317.387 166.683C319.255 166.683 320.585 167.44 321.232 169.063H321.281C322.27 167.55 323.869 166.695 325.725 166.695ZM334.307 164.583C333.489 164.583 332.866 163.949 332.866 163.167C332.866 162.374 333.489 161.739 334.307 161.739C335.1 161.739 335.747 162.374 335.747 163.167C335.747 163.949 335.1 164.583 334.307 164.583ZM333.281 179V166.842H335.295V179H333.281ZM345.33 166.695H345.342C347.967 166.695 349.712 168.307 349.712 171.798V179.012H347.686V172.359C347.686 169.503 346.49 168.551 344.708 168.551C342.413 168.551 340.887 170.199 340.887 172.933V179H338.86V166.842H340.887V168.929H340.923C341.937 167.489 343.536 166.695 345.33 166.695ZM362.091 166.842L364.117 166.83V178.084C364.117 181.588 362.372 184.09 358.136 184.09C356.317 184.09 354.632 183.651 353.18 182.772L353.668 180.904C355.084 181.71 356.305 182.186 358.038 182.186C360.785 182.186 362.14 180.587 362.14 178.622V176.925H362.079C361.102 178.084 359.698 178.78 357.94 178.78C354.706 178.78 352.057 176.375 352.057 172.75C352.057 169.308 354.535 166.695 357.843 166.695C359.466 166.695 360.992 167.33 362.042 168.526H362.091V166.842ZM358.111 176.876C360.565 176.876 362.176 175.082 362.176 172.652C362.176 170.199 360.406 168.563 358.111 168.563C355.78 168.563 354.132 170.333 354.132 172.677C354.132 175.265 355.926 176.876 358.111 176.876ZM374.067 179V161.251H376.228V169.576H385.517V161.251H387.702V179H385.517V171.578H376.228V179H374.067ZM391.731 179V161.251H397.944C402.095 161.251 403.816 163.607 403.816 166.756C403.816 170.516 401.265 172.237 397.566 172.237H393.892V179H391.731ZM393.904 170.235H397.358C400.337 170.235 401.558 168.734 401.558 166.708C401.558 164.461 400.093 163.253 397.7 163.253H393.904V170.235ZM424.605 161.251H426.949L420.26 179H418.307L411.617 161.251H413.973L419.259 175.875H419.283L424.605 161.251ZM430.087 164.583C429.269 164.583 428.646 163.949 428.646 163.167C428.646 162.374 429.269 161.739 430.087 161.739C430.88 161.739 431.527 162.374 431.527 163.167C431.527 163.949 430.88 164.583 430.087 164.583ZM429.062 179V166.842H431.076V179H429.062ZM439.902 179.159H439.914C436.411 179.159 433.896 176.632 433.896 172.945C433.896 169.259 436.411 166.683 439.987 166.683C441.806 166.683 443.698 167.428 444.895 168.844L443.491 170.064C442.734 169.161 441.538 168.539 440.085 168.539C437.619 168.539 435.947 170.345 435.947 172.921C435.947 175.521 437.644 177.291 440.085 177.291C441.513 177.291 442.783 176.681 443.527 175.838L444.931 177.096C443.906 178.268 442.087 179.159 439.902 179.159ZM450.632 179.159V179.171C448.472 179.171 447.471 177.84 447.471 175.387V168.6H445.92V166.842H447.471V162.679L449.497 162.459V166.842H453.525V168.6H449.497V175.082C449.497 176.546 449.839 177.267 450.986 177.267C451.707 177.267 452.463 176.974 453.037 176.644L453.574 178.414C452.915 178.792 452.073 179.159 450.632 179.159ZM464.146 166.842H466.172V179H464.146V176.998H464.109C463.145 178.402 461.692 179.159 460.118 179.159C457.322 179.159 455.552 177.56 455.552 174.093V166.842H457.566V173.507C457.566 176.278 458.604 177.303 460.545 177.303C462.474 177.303 464.146 175.631 464.146 172.738V166.842ZM473.119 179.159V179.171C471.117 179.171 469.542 178.475 468.346 177.413L469.408 175.875C470.348 176.766 471.41 177.328 473.119 177.328C474.583 177.328 475.438 176.595 475.438 175.704C475.438 174.654 474.303 174.325 472.533 173.702C470.543 173.006 468.871 172.188 468.871 169.955C468.871 168.099 470.58 166.695 472.899 166.695C474.364 166.695 475.731 167.086 477.086 168.197L476.036 169.796C474.962 168.868 473.839 168.526 472.801 168.526C471.874 168.526 470.934 169.076 470.934 169.955C470.934 170.907 471.935 171.371 473.241 171.871C475.804 172.86 477.501 173.299 477.489 175.667C477.489 177.584 476.048 179.159 473.119 179.159ZM498.474 179L496.887 174.679H488.964L487.39 179H485.107L491.821 161.251H494.006L500.769 179H498.474ZM489.66 172.774H496.191L492.944 163.9H492.895L489.66 172.774ZM518.494 161.251H520.667V179H518.494V165.401H518.457L512.671 175.436H511.194L505.408 165.401H505.371V179H503.198V161.251H505.383L511.902 172.738H511.975L518.494 161.251ZM524.683 179V161.251H529.993C535.621 161.251 539.209 164.901 539.209 170.15C539.209 175.387 535.73 179 530.066 179H524.683ZM526.856 177.022H529.932C534.192 177.022 536.963 174.142 536.963 170.15C536.963 166.085 534.168 163.229 530.03 163.229H526.856V177.022ZM561.476 179H558.852L554.311 172.225H550.99V179H548.817V161.239H555.116C559.206 161.239 560.988 163.595 560.988 166.744C560.988 169.771 559.328 171.48 556.752 172.042L556.74 172.054L561.476 179ZM550.99 163.241V170.223H554.53C557.472 170.223 558.729 168.722 558.729 166.695C558.729 164.449 557.265 163.241 554.835 163.241H550.99ZM572.5 166.842H574.636L567.751 183.944H565.603L567.775 178.536L562.636 166.842H564.797L568.752 176.095H568.813L572.5 166.842ZM585.574 168.282L578.469 177.206V177.254H585.562V179.012H575.735V177.523L582.791 168.648V168.6H576.113V166.842H585.574V168.282ZM598.221 172.738C598.221 173.031 598.184 173.458 598.16 173.556L598.172 173.568H588.809C589.065 175.826 590.677 177.303 592.862 177.303C594.375 177.303 595.535 176.607 596.292 175.667L597.708 176.876C596.67 178.219 595.01 179.159 592.789 179.159C589.334 179.159 586.734 176.644 586.734 172.933C586.734 169.259 589.273 166.695 592.557 166.695C595.95 166.695 598.221 169.247 598.221 172.738ZM592.667 168.563C590.762 168.563 589.236 169.82 588.858 171.883H596.207C595.889 169.894 594.595 168.563 592.667 168.563ZM607.267 166.695H607.279C609.903 166.695 611.649 168.307 611.649 171.798V179.012H609.623V172.359C609.623 169.503 608.426 168.551 606.644 168.551C604.349 168.551 602.823 170.199 602.823 172.933V179H600.797V166.842H602.823V168.929H602.86C603.873 167.489 605.472 166.695 607.267 166.695ZM626.372 168.111V168.099C629.411 168.099 631.914 170.125 631.914 173.58C631.914 176.888 629.277 179.171 625.944 179.171C623.576 179.171 621.452 178.097 620.244 176.302L621.806 175.106C622.587 176.363 624.028 177.206 625.786 177.206C628.007 177.206 629.79 175.655 629.79 173.556C629.79 171.224 627.91 169.955 625.822 169.955C624.699 169.955 623.588 170.211 622.795 170.895L621.574 170.516L622.075 161.837H631.145V163.766H624.052L623.784 168.587C624.711 168.282 625.712 168.111 626.372 168.111Z" fill="#00E6DD"/>
</g>
</g>
<defs>
<linearGradient id="paint0_linear_30_1471" x1="204.751" y1="576.262" x2="1355.46" y2="576.262" gradientUnits="userSpaceOnUse">
<stop stop-color="#77C190"/>
<stop offset="1" stop-color="#4B57A1"/>
</linearGradient>
<linearGradient id="paint1_linear_30_1471" x1="204.81" y1="122" x2="1355.46" y2="122" gradientUnits="userSpaceOnUse">
<stop stop-color="#77C190"/>
<stop offset="1" stop-color="#4B57A1"/>
</linearGradient>
<linearGradient id="paint2_linear_30_1471" x1="204.81" y1="122" x2="1355.46" y2="122" gradientUnits="userSpaceOnUse">
<stop stop-color="#77C190"/>
<stop offset="1" stop-color="#4B57A1"/>
</linearGradient>
<linearGradient id="paint3_linear_30_1471" x1="204.81" y1="122" x2="1355.46" y2="122" gradientUnits="userSpaceOnUse">
<stop stop-color="#77C190"/>
<stop offset="1" stop-color="#4B57A1"/>
</linearGradient>
<linearGradient id="paint4_linear_30_1471" x1="204.81" y1="122" x2="1355.46" y2="122" gradientUnits="userSpaceOnUse">
<stop stop-color="#77C190"/>
<stop offset="1" stop-color="#4B57A1"/>
</linearGradient>
<linearGradient id="paint5_linear_30_1471" x1="204.813" y1="122" x2="1355.52" y2="122" gradientUnits="userSpaceOnUse">
<stop stop-color="#77C190"/>
<stop offset="1" stop-color="#4B57A1"/>
</linearGradient>
<linearGradient id="paint6_linear_30_1471" x1="204.813" y1="122" x2="1355.52" y2="122" gradientUnits="userSpaceOnUse">
<stop stop-color="#77C190"/>
<stop offset="1" stop-color="#4B57A1"/>
</linearGradient>
<linearGradient id="paint7_linear_30_1471" x1="204.814" y1="122" x2="1355.52" y2="122" gradientUnits="userSpaceOnUse">
<stop stop-color="#77C190"/>
<stop offset="1" stop-color="#4B57A1"/>
</linearGradient>
<linearGradient id="paint8_linear_30_1471" x1="217.735" y1="396.865" x2="1351.27" y2="396.865" gradientUnits="userSpaceOnUse">
<stop stop-color="#77C190"/>
<stop offset="1" stop-color="#4B57A1"/>
</linearGradient>
<linearGradient id="paint9_linear_30_1471" x1="290.077" y1="515.731" x2="1056.04" y2="515.731" gradientUnits="userSpaceOnUse">
<stop stop-color="#77C190"/>
<stop offset="1" stop-color="#4B57A1"/>
</linearGradient>
<linearGradient id="paint10_linear_30_1471" x1="227.07" y1="421.705" x2="1352.29" y2="421.705" gradientUnits="userSpaceOnUse">
<stop stop-color="#77C190"/>
<stop offset="1" stop-color="#4B57A1"/>
</linearGradient>
<linearGradient id="paint11_linear_30_1471" x1="218.932" y1="447.423" x2="1341.58" y2="447.423" gradientUnits="userSpaceOnUse">
<stop stop-color="#77C190"/>
<stop offset="1" stop-color="#4B57A1"/>
</linearGradient>
<linearGradient id="paint12_linear_30_1471" x1="230.839" y1="279.003" x2="1353.48" y2="279.003" gradientUnits="userSpaceOnUse">
<stop stop-color="#77C190"/>
<stop offset="1" stop-color="#4B57A1"/>
</linearGradient>
<linearGradient id="paint13_linear_30_1471" x1="227.727" y1="379.302" x2="1350.37" y2="379.302" gradientUnits="userSpaceOnUse">
<stop stop-color="#77C190"/>
<stop offset="1" stop-color="#4B57A1"/>
</linearGradient>
<linearGradient id="paint14_linear_30_1471" x1="230.599" y1="406.023" x2="1353.24" y2="406.023" gradientUnits="userSpaceOnUse">
<stop stop-color="#77C190"/>
<stop offset="1" stop-color="#4B57A1"/>
</linearGradient>
<clipPath id="clip0_30_1471">
<rect width="1440" height="813" fill="white"/>
</clipPath>
<clipPath id="clip1_30_1471">
<rect width="1386" height="634" fill="white" transform="translate(80 60)"/>
</clipPath>
<clipPath id="clip2_30_1471">
<rect width="1248" height="555" fill="white" transform="translate(106.5 122)"/>
</clipPath>
</defs>
</svg>
