<svg width="64" height="61" viewBox="0 0 64 61" fill="none" xmlns="http://www.w3.org/2000/svg">
<path d="M50.3953 2H13.0876C6.96411 2 2 6.7569 2 12.6248V48.3752C2 54.2431 6.96411 59 13.0876 59H50.3953C56.5188 59 61.4829 54.2431 61.4829 48.3752V12.6248C61.4829 6.7569 56.5188 2 50.3953 2Z" stroke="#111638" stroke-width="4" stroke-linecap="round" stroke-linejoin="round"/>
<path d="M38.3667 18.1858H41.6816V11.2767H36.6961C29.6268 11.2767 26.2767 15.3042 26.2767 21.0421V26.4767H20.7461V33.0404H26.2767V49.7317H34.5771V33.0404H40.1077L41.6816 26.4767H34.5771V21.9942C34.5771 20.1574 35.6234 18.1774 38.3755 18.1774L38.3667 18.1858Z" fill="#111638"/>
</svg>
