<svg width="58" height="57" viewBox="0 0 58 57" fill="none" xmlns="http://www.w3.org/2000/svg">
<g clip-path="url(#clip0_35_2696)">
<path d="M12.0261 20.6998C12.3205 19.1485 12.5989 17.5972 13.4422 16.213C15.3674 13.0706 18.3825 11.8614 21.851 11.7819C26.5844 11.6625 31.3258 11.6705 36.0672 11.7819C39.2811 11.8614 42.1451 12.9195 44.1021 15.7038C45.359 17.5017 45.8284 19.5542 45.8602 21.6783C45.9318 26.2287 45.9636 30.7872 45.8602 35.3376C45.7727 39.005 44.4998 42.1315 41.0711 43.993C39.488 44.8522 37.7458 45.2261 35.9717 45.25C31.294 45.3056 26.6162 45.3534 21.9385 45.25C18.4302 45.1704 15.3833 43.9851 13.4342 40.8109C12.591 39.4346 12.3125 37.8754 12.0182 36.3241V20.7077L12.0261 20.6998ZM28.9949 14.9879C26.6719 14.9879 24.349 14.9401 22.026 14.9958C18.3984 15.0833 16.1709 16.7778 15.5106 19.9043C15.3674 20.5645 15.264 21.2487 15.264 21.9249C15.2401 26.3242 15.1844 30.7235 15.2719 35.1228C15.3594 39.4983 17.571 41.8371 21.7953 41.9962C26.5605 42.1712 31.3337 42.1553 36.099 41.9962C39.6153 41.8769 41.7075 40.1904 42.3758 37.1514C42.4951 36.6105 42.6065 36.0536 42.6144 35.4967C42.6383 30.4849 42.9167 25.465 42.4633 20.4611C42.1928 17.4938 40.2119 15.5606 37.2525 15.1549C34.5079 14.781 31.7474 15.0435 28.9949 14.9879Z" fill="#111638"/>
<path d="M37.7299 28.5676C37.714 33.2931 33.792 37.1753 28.979 37.231C24.1501 37.2867 20.1406 33.301 20.1565 28.4562C20.1725 23.691 24.2376 19.6974 28.9949 19.7929C33.8795 19.8883 37.7378 23.7705 37.7219 28.5676H37.7299ZM34.4762 28.5199C34.4762 25.5128 32.002 23.0466 28.9631 23.0307C25.9401 23.0148 23.4262 25.4889 23.4182 28.4881C23.4182 31.4952 25.8923 33.9613 28.9313 33.9772C31.9543 33.9932 34.4682 31.519 34.4762 28.5199Z" fill="#111638"/>
<path d="M37.9685 17.4938C39.13 17.4779 40.1164 18.4405 40.1164 19.594C40.1164 20.6918 39.1618 21.6385 38.0401 21.6703C36.8786 21.7022 35.8683 20.7555 35.8524 19.6099C35.8285 18.4564 36.7831 17.5097 37.9764 17.4938H37.9685Z" fill="#111638"/>
<path d="M45.8602 1.59106H12.1057C6.56531 1.59106 2.07397 6.0824 2.07397 11.6227V45.3772C2.07397 50.9176 6.56531 55.4089 12.1057 55.4089H45.8602C51.4005 55.4089 55.8918 50.9176 55.8918 45.3772V11.6227C55.8918 6.0824 51.4005 1.59106 45.8602 1.59106Z" stroke="#111638" stroke-width="4" stroke-linecap="round" stroke-linejoin="round"/>
</g>
<defs>
<clipPath id="clip0_35_2696">
<rect width="57" height="57" fill="white" transform="translate(0.48291)"/>
</clipPath>
</defs>
</svg>
