<svg width="62" height="57" viewBox="0 0 62 57" fill="none" xmlns="http://www.w3.org/2000/svg">
<g clip-path="url(#clip0_163_454)">
<path d="M22.9078 17.9313C22.9078 19.594 21.7755 20.9544 19.6727 20.9544C17.7316 20.9544 16.4375 19.594 16.4375 18.0825C16.4375 16.4198 17.7316 14.9083 19.6727 14.9083C21.6138 14.9083 22.9078 16.2687 22.9078 17.9313Z" fill="#111638"/>
<path d="M22.9079 22.4579H16.446V42.0837H22.9079V22.4579Z" fill="#111638"/>
<path d="M38.4112 22.7602C35.0142 22.7602 33.0816 24.574 32.2728 25.7832H32.1111L31.7876 23.2137H25.9728C25.9728 24.8763 26.1345 26.8333 26.1345 29.1006V42.0837H32.5964V31.3679C32.5964 30.7633 32.5964 30.3098 32.7581 29.8564C33.2434 28.7983 34.0522 27.438 35.8315 27.438C38.0962 27.438 39.0667 29.2518 39.0667 31.6622V42.0758H45.5285V30.9065C45.5285 25.3218 42.4551 22.7523 38.4197 22.7523L38.4112 22.7602Z" fill="#111638"/>
<path d="M49.0446 1.59106H12.9213C6.99219 1.59106 2.18567 6.0824 2.18567 11.6227V45.3772C2.18567 50.9176 6.99219 55.4089 12.9213 55.4089H49.0446C54.9737 55.4089 59.7802 50.9176 59.7802 45.3772V11.6227C59.7802 6.0824 54.9737 1.59106 49.0446 1.59106Z" stroke="#111638" stroke-width="4" stroke-linecap="round" stroke-linejoin="round"/>
</g>
<defs>
<clipPath id="clip0_163_454">
<rect width="61" height="57" fill="white" transform="translate(0.48291)"/>
</clipPath>
</defs>
</svg>
