<svg width="43" height="40" viewBox="0 0 43 40" fill="none" xmlns="http://www.w3.org/2000/svg">
<g clip-path="url(#clip0_167_267)">
<ellipse cx="19.8943" cy="19.7644" rx="19.0244" ry="19.1794" fill="#E65000"/>
<path d="M29.3293 2.87781C29.3293 2.87781 29.0928 2.58407 29.0859 2.57716C29.0791 2.57024 28.7843 2.84325 28.7843 2.84325L27.5914 3.88343L26.354 3.79703L25.8261 3.18537L25.4353 3.52749L25.9838 4.16334L27.7422 4.28775L29.3293 2.88126V2.87781Z" fill="white"/>
<path d="M25.6871 3.5025C25.8841 3.3296 25.9079 3.03187 25.7401 2.83751C25.5724 2.64314 25.2766 2.62574 25.0795 2.79863C24.8824 2.97153 24.8587 3.26926 25.0264 3.46363C25.1942 3.65799 25.49 3.67539 25.6871 3.5025Z" fill="white"/>
<path d="M28.7295 7.15608L28.4141 7.43254L27.1116 5.92583L27.2247 4.24634L27.7423 4.28435L27.6395 5.7876L28.7809 7.11115L28.7295 7.15608Z" fill="white"/>
<path d="M29.1742 7.8598C29.3713 7.6869 29.3951 7.38918 29.2273 7.19481C29.0595 7.00044 28.7638 6.98304 28.5667 7.15594C28.3696 7.32883 28.3458 7.62656 28.5136 7.82093C28.6814 8.01529 28.9772 8.0327 29.1742 7.8598Z" fill="white"/>
<path d="M27.1115 5.92574L27.1355 5.54561L24.2767 5.34863L23.101 6.37845L23.454 6.78622L24.5475 5.82898L27.1115 5.92574Z" fill="white"/>
<path d="M23.4295 7.05011C23.6266 6.87721 23.6503 6.57948 23.4826 6.38512C23.3148 6.19075 23.019 6.17335 22.8219 6.34624C22.6249 6.51914 22.6011 6.81687 22.7689 7.01123C22.9366 7.2056 23.2324 7.223 23.4295 7.05011Z" fill="white"/>
<path d="M14.0255 37.9654C14.0255 37.9654 14.3671 38.1203 14.3763 38.1234C14.3855 38.1265 14.5285 37.7496 14.5285 37.7496L15.136 36.2823L16.2816 35.7995L17.0246 36.1062L17.223 35.6243L16.4509 35.3053L14.8221 35.9899L14.024 37.9623L14.0255 37.9654Z" fill="white"/>
<path d="M17.0081 35.7627C16.9083 36.0066 17.0187 36.2836 17.2546 36.3812C17.4906 36.4789 17.7628 36.3603 17.8626 36.1164C17.9624 35.8724 17.8521 35.5955 17.6161 35.4978C17.3802 35.4001 17.108 35.5187 17.0081 35.7627Z" fill="white"/>
<path d="M12.6642 33.8709L12.8243 33.4811L14.6593 34.2367L15.3019 35.7882L14.8212 35.9888L14.2474 34.5994L12.638 33.9344L12.6642 33.8709Z" fill="white"/>
<path d="M11.9548 33.4406C11.855 33.6846 11.9653 33.9615 12.2013 34.0592C12.4372 34.1569 12.7094 34.0383 12.8093 33.7944C12.9091 33.5504 12.7987 33.2735 12.5628 33.1758C12.3268 33.0781 12.0546 33.1967 11.9548 33.4406Z" fill="white"/>
<path d="M14.6559 34.2396L14.8026 34.5894L17.4478 33.472L18.0444 32.022L17.5481 31.8181L16.993 33.1662L14.6559 34.2396Z" fill="white"/>
<path d="M17.4511 31.5715C17.3513 31.8154 17.4617 32.0924 17.6976 32.1901C17.9336 32.2877 18.2058 32.1692 18.3056 31.9252C18.4054 31.6813 18.2951 31.4043 18.0591 31.3067C17.8231 31.209 17.551 31.3276 17.4511 31.5715Z" fill="white"/>
<path d="M37.6038 27.3835C37.6038 27.3835 37.8863 27.1323 37.8929 27.1251C37.8995 27.1179 37.6157 26.8335 37.6157 26.8335L36.5317 25.6795L36.5666 24.4302L37.1533 23.8716L36.7969 23.4936L36.1869 24.074L36.1357 25.8493L37.6004 27.3837L37.6038 27.3835Z" fill="white"/>
<path d="M36.8289 23.7449C37.0084 23.9356 37.3045 23.9462 37.4902 23.7685C37.676 23.5909 37.6811 23.2922 37.5016 23.1015C37.3221 22.9107 37.0261 22.9001 36.8403 23.0778C36.6546 23.2555 36.6495 23.5541 36.8289 23.7449Z" fill="white"/>
<path d="M33.3368 26.9652L33.0496 26.6609L34.4906 25.2859L36.1613 25.3245L36.1449 25.8459L34.6495 25.8097L33.3835 27.0148L33.3368 26.9652Z" fill="white"/>
<path d="M32.6605 27.4443C32.8399 27.6351 33.136 27.6457 33.3218 27.468C33.5075 27.2903 33.5126 26.9917 33.3331 26.8009C33.1537 26.6102 32.8576 26.5996 32.6718 26.7773C32.4861 26.9549 32.481 27.2536 32.6605 27.4443Z" fill="white"/>
<path d="M34.4865 25.2816L34.8659 25.2887L34.944 22.4023L33.8702 21.265L33.4788 21.6386L34.477 22.6964L34.4865 25.2816Z" fill="white"/>
<path d="M33.2163 21.6234C33.3957 21.8141 33.6918 21.8247 33.8775 21.6471C34.0633 21.4694 34.0684 21.1707 33.8889 20.98C33.7095 20.7893 33.4134 20.7787 33.2276 20.9563C33.0419 21.134 33.0368 21.4327 33.2163 21.6234Z" fill="white"/>
<path d="M0.580202 19.6178C0.580202 19.6178 0.592329 19.9962 0.593642 20.0059C0.594955 20.0156 0.993635 19.9768 0.993635 19.9768L2.56817 19.8713L3.50209 20.6927L3.55551 21.5021L4.07213 21.4665L4.01684 20.6252L2.69068 19.4567L0.582276 19.615L0.580202 19.6178Z" fill="white"/>
<path d="M3.85816 21.3353C3.59718 21.3535 3.3994 21.5764 3.41642 21.8331C3.43343 22.0898 3.65879 22.2832 3.91978 22.2649C4.18076 22.2467 4.37854 22.0238 4.36153 21.7671C4.34451 21.5104 4.11915 21.3171 3.85816 21.3353Z" fill="white"/>
<path d="M3.62214 16.5704L4.03886 16.5414L4.17212 18.5347L3.07514 19.8059L2.68601 19.4612L3.66914 18.3243L3.55428 16.575L3.62214 16.5704Z" fill="white"/>
<path d="M3.68751 15.7391C3.42653 15.7573 3.22875 15.9802 3.24576 16.2369C3.26278 16.4936 3.48814 16.687 3.74913 16.6687C4.01011 16.6505 4.20789 16.4276 4.19087 16.1709C4.17386 15.9142 3.9485 15.7209 3.68751 15.7391Z" fill="white"/>
<path d="M4.17389 18.5372L3.92661 18.8262L6.08599 20.7219L7.64082 20.6143L7.60429 20.0739L6.15856 20.1736L4.17389 18.5372Z" fill="white"/>
<path d="M7.78236 19.8812C7.52138 19.8994 7.3236 20.1223 7.34061 20.379C7.35763 20.6357 7.58299 20.8291 7.84397 20.8108C8.10496 20.7926 8.30274 20.5697 8.28572 20.313C8.26871 20.0563 8.04335 19.8629 7.78236 19.8812Z" fill="white"/>
<path d="M20.038 18.6834C18.2036 18.1963 17.6137 17.6927 17.6137 16.9085C17.6137 16.0086 18.4299 15.3812 19.7956 15.3812C21.2341 15.3812 21.7674 16.0829 21.8159 17.1149H23.6019C23.5453 15.6949 22.6968 14.3906 21.0078 13.9696V12.1616H18.5834V13.9448C17.0156 14.2915 15.755 15.3317 15.755 16.925C15.755 18.832 17.2985 19.7814 19.5532 20.3345C21.5735 20.8298 21.9776 21.5563 21.9776 22.324C21.9776 22.8936 21.5816 23.8017 19.7956 23.8017C18.1309 23.8017 17.4763 23.0422 17.3874 22.0681H15.6095C15.7065 23.876 17.0318 24.8915 18.5834 25.2299V27.0213H21.0078V25.2464C22.5837 24.941 23.8363 24.0081 23.8363 22.3158C23.8363 19.9712 21.8725 19.1705 20.038 18.6834Z" fill="white"/>
</g>
<defs>
<clipPath id="clip0_167_267">
<rect width="43" height="48" fill="white" transform="matrix(-1 -8.74228e-08 -8.74228e-08 1 43 0)"/>
</clipPath>
</defs>
</svg>
