<svg width="58" height="57" viewBox="0 0 58 57" fill="none" xmlns="http://www.w3.org/2000/svg">
<g clip-path="url(#clip0_35_2704)">
<path d="M35.6774 28.3369C35.6933 28.4165 35.7012 28.496 35.6933 28.5835C35.7092 28.504 35.7092 28.4165 35.6774 28.3369Z" fill="#111638"/>
<path d="M29.5517 14.9481C12.2568 14.9481 11.9545 16.4834 11.9545 28.496C11.9545 40.5086 12.2568 42.0439 29.5517 42.0439C46.8466 42.0439 47.1489 40.5086 47.1489 28.496C47.1489 16.4834 46.8466 14.9481 29.5517 14.9481ZM35.1603 29.387L27.2208 33.2215C26.5844 33.5317 25.8445 33.0624 25.8445 32.3543V24.8525C25.8445 24.1524 26.5685 23.683 27.2049 23.9774L35.1443 27.6368C35.4546 27.78 35.6217 28.0425 35.6773 28.3289C35.7092 28.4085 35.7092 28.496 35.6933 28.5756C35.6694 28.9017 35.5023 29.212 35.1603 29.379V29.387Z" fill="#111638"/>
<path d="M45.8602 1.59106H12.1057C6.56531 1.59106 2.07397 6.0824 2.07397 11.6227V45.3772C2.07397 50.9176 6.56531 55.4089 12.1057 55.4089H45.8602C51.4005 55.4089 55.8918 50.9176 55.8918 45.3772V11.6227C55.8918 6.0824 51.4005 1.59106 45.8602 1.59106Z" stroke="#111638" stroke-width="4" stroke-linecap="round" stroke-linejoin="round"/>
</g>
<defs>
<clipPath id="clip0_35_2704">
<rect width="57" height="57" fill="white" transform="translate(0.48291)"/>
</clipPath>
</defs>
</svg>
